TITLE ""
FILE "Step2_Track34.mp3" MP3
  TRACK 01 AUDIO
    TITLE "Step2_Track34_01"
    INDEX 01 00:00:00
  TRACK 02 AUDIO
    TITLE "Step2_Track34_02"
    INDEX 01 00:00:22
  TRACK 03 AUDIO
    TITLE "Step2_Track34_03"
    INDEX 01 00:02:01
  TRACK 04 AUDIO
    TITLE "Step2_Track34_04"
    INDEX 01 00:02:46
  TRACK 05 AUDIO
    TITLE "Step2_Track34_05"
    INDEX 01 00:03:48
  TRACK 06 AUDIO
    TITLE "Step2_Track34_06"
    INDEX 01 00:03:69
  TRACK 07 AUDIO
    TITLE "Step2_Track34_07"
    INDEX 01 00:06:03
  TRACK 08 AUDIO
    TITLE "Step2_Track34_08"
    INDEX 01 00:06:21
  TRACK 09 AUDIO
    TITLE "Step2_Track34_09"
    INDEX 01 00:07:18
  TRACK 10 AUDIO
    TITLE "Step2_Track34_10"
    INDEX 01 00:07:38
  TRACK 11 AUDIO
    TITLE "Step2_Track34_11"
    INDEX 01 00:09:35
  TRACK 12 AUDIO
    TITLE "Step2_Track34_12"
    INDEX 01 00:09:54
  TRACK 13 AUDIO
    TITLE "Step2_Track34_13"
    INDEX 01 00:10:46
  TRACK 14 AUDIO
    TITLE "Step2_Track34_14"
    INDEX 01 00:10:48
  TRACK 15 AUDIO
    TITLE "Step2_Track34_15"
    INDEX 01 00:12:62
  TRACK 16 AUDIO
    TITLE "Step2_Track34_16"
    INDEX 01 00:13:19
  TRACK 17 AUDIO
    TITLE "Step2_Track34_17"
    INDEX 01 00:14:18
  TRACK 18 AUDIO
    TITLE "Step2_Track34_18"
    INDEX 01 00:14:30
  TRACK 19 AUDIO
    TITLE "Step2_Track34_19"
    INDEX 01 00:16:37
  TRACK 20 AUDIO
    TITLE "Step2_Track34_20"
    INDEX 01 00:16:60
  TRACK 21 AUDIO
    TITLE "Step2_Track34_21"
    INDEX 01 00:17:52
  TRACK 22 AUDIO
    TITLE "Step2_Track34_22"
    INDEX 01 00:17:62
  TRACK 23 AUDIO
    TITLE "Step2_Track34_23"
    INDEX 01 00:19:72
  TRACK 24 AUDIO
    TITLE "Step2_Track34_24"
    INDEX 01 00:20:17
  TRACK 25 AUDIO
    TITLE "Step2_Track34_25"
    INDEX 01 00:21:18
  TRACK 26 AUDIO
    TITLE "Step2_Track34_26"
    INDEX 01 00:21:40
  TRACK 27 AUDIO
    TITLE "Step2_Track34_27"
    INDEX 01 00:23:58
  TRACK 28 AUDIO
    TITLE "Step2_Track34_28"
    INDEX 01 00:24:17
  TRACK 29 AUDIO
    TITLE "Step2_Track34_29"
    INDEX 01 00:25:22
  TRACK 30 AUDIO
    TITLE "Step2_Track34_30"
    INDEX 01 00:25:30
  TRACK 31 AUDIO
    TITLE "Step2_Track34_31"
    INDEX 01 00:27:33
  TRACK 32 AUDIO
    TITLE "Step2_Track34_32"
    INDEX 01 00:28:07
  TRACK 33 AUDIO
    TITLE "Step2_Track34_33"
    INDEX 01 00:28:73
  TRACK 34 AUDIO
    TITLE "Step2_Track34_34"
    INDEX 01 00:29:06
  TRACK 35 AUDIO
    TITLE "Step2_Track34_35"
    INDEX 01 00:30:62
  TRACK 36 AUDIO
    TITLE "Step2_Track34_36"
    INDEX 01 00:31:19
  TRACK 37 AUDIO
    TITLE "Step2_Track34_37"
    INDEX 01 00:32:22
  TRACK 38 AUDIO
    TITLE "Step2_Track34_38"
    INDEX 01 00:32:24
  TRACK 39 AUDIO
    TITLE "Step2_Track34_39"
    INDEX 01 00:34:37
  TRACK 40 AUDIO
    TITLE "Step2_Track34_40"
    INDEX 01 00:34:64
  TRACK 41 AUDIO
    TITLE "Step2_Track34_41"
    INDEX 01 00:35:60
  TRACK 42 AUDIO
    TITLE "Step2_Track34_42"
    INDEX 01 00:35:67
  TRACK 43 AUDIO
    TITLE "Step2_Track34_43"
    INDEX 01 00:38:30
